<svg xmlns="http://www.w3.org/2000/svg" xmlns:xlink="http://www.w3.org/1999/xlink" width="320" zoomAndPan="magnify" viewBox="0 0 240 74.999997" height="100" preserveAspectRatio="xMidYMid meet" version="1.0"><defs><g/><clipPath id="9411a00335"><path d="M 52.253906 36.539062 L 64.417969 36.539062 L 64.417969 48.703125 L 52.253906 48.703125 Z M 52.253906 36.539062 " clip-rule="nonzero"/></clipPath><clipPath id="fe2d61cf69"><path d="M 58.335938 36.539062 C 54.976562 36.539062 52.253906 39.261719 52.253906 42.621094 C 52.253906 45.980469 54.976562 48.703125 58.335938 48.703125 C 61.695312 48.703125 64.417969 45.980469 64.417969 42.621094 C 64.417969 39.261719 61.695312 36.539062 58.335938 36.539062 Z M 58.335938 36.539062 " clip-rule="nonzero"/></clipPath><clipPath id="b1c0f40cdf"><path d="M 0.253906 0.539062 L 12.417969 0.539062 L 12.417969 12.703125 L 0.253906 12.703125 Z M 0.253906 0.539062 " clip-rule="nonzero"/></clipPath><clipPath id="67f20e4c74"><path d="M 6.335938 0.539062 C 2.976562 0.539062 0.253906 3.261719 0.253906 6.621094 C 0.253906 9.980469 2.976562 12.703125 6.335938 12.703125 C 9.695312 12.703125 12.417969 9.980469 12.417969 6.621094 C 12.417969 3.261719 9.695312 0.539062 6.335938 0.539062 Z M 6.335938 0.539062 " clip-rule="nonzero"/></clipPath><clipPath id="417dd4b1e8"><rect x="0" width="13" y="0" height="13"/></clipPath></defs><path stroke-linecap="round" transform="matrix(0.75, 0, 0, 0.75, 37.535004, 19.867186)" fill="none" stroke-linejoin="miter" d="M 5.500203 5.500002 L 19.047079 5.500002 " stroke="#1f48ff" stroke-width="11" stroke-opacity="1" stroke-miterlimit="4"/><path stroke-linecap="round" transform="matrix(0.75, 0, 0, 0.75, 60.514881, 19.867186)" fill="none" stroke-linejoin="miter" d="M 5.500992 5.500002 L 19.047868 5.500002 " stroke="#1f48ff" stroke-width="11" stroke-opacity="1" stroke-miterlimit="4"/><path stroke-linecap="round" transform="matrix(0, 0.75, -0.75, 0, 45.353463, 19.836488)" fill="none" stroke-linejoin="miter" d="M 5.499266 5.502535 L 49.952395 5.502535 " stroke="#1f48ff" stroke-width="11" stroke-opacity="1" stroke-miterlimit="4"/><path stroke-linecap="round" transform="matrix(0, 0.75, -0.75, 0, 79.557332, 19.836488)" fill="none" stroke-linejoin="miter" d="M 5.499266 5.498318 L 49.952395 5.498318 " stroke="#1f48ff" stroke-width="11" stroke-opacity="1" stroke-miterlimit="4"/><g clip-path="url(#9411a00335)"><g clip-path="url(#fe2d61cf69)"><g transform="matrix(1, 0, 0, 1, 52, 36)"><g clip-path="url(#417dd4b1e8)"><g clip-path="url(#b1c0f40cdf)"><g clip-path="url(#67f20e4c74)"><path fill="#ffa51f" d="M 0.253906 0.539062 L 12.417969 0.539062 L 12.417969 12.703125 L 0.253906 12.703125 Z M 0.253906 0.539062 " fill-opacity="1" fill-rule="nonzero"/></g></g></g></g></g></g><g fill="#000000" fill-opacity="1"><g transform="translate(91.703808, 56.050172)"><g><path d="M 31.71875 -15.390625 C 31.71875 -10.304688 30.457031 -6.398438 27.9375 -3.671875 C 25.425781 -0.941406 21.816406 0.421875 17.109375 0.421875 C 12.410156 0.421875 8.800781 -0.941406 6.28125 -3.671875 C 3.757812 -6.398438 2.5 -10.320312 2.5 -15.4375 C 2.5 -20.539062 3.757812 -24.4375 6.28125 -27.125 C 8.8125 -29.820312 12.4375 -31.171875 17.15625 -31.171875 C 21.875 -31.171875 25.476562 -29.8125 27.96875 -27.09375 C 30.46875 -24.382812 31.71875 -20.484375 31.71875 -15.390625 Z M 9.328125 -15.390625 C 9.328125 -11.960938 9.976562 -9.378906 11.28125 -7.640625 C 12.582031 -5.910156 14.523438 -5.046875 17.109375 -5.046875 C 22.304688 -5.046875 24.90625 -8.492188 24.90625 -15.390625 C 24.90625 -22.304688 22.320312 -25.765625 17.15625 -25.765625 C 14.5625 -25.765625 12.609375 -24.890625 11.296875 -23.140625 C 9.984375 -21.398438 9.328125 -18.816406 9.328125 -15.390625 Z M 9.328125 -15.390625 "/></g></g></g><g fill="#000000" fill-opacity="1"><g transform="translate(127.644399, 56.050172)"><g><path d="M 10.375 -17.0625 L 12.46875 -17.0625 C 14.53125 -17.0625 16.050781 -17.40625 17.03125 -18.09375 C 18.007812 -18.78125 18.5 -19.859375 18.5 -21.328125 C 18.5 -22.785156 18 -23.820312 17 -24.4375 C 16 -25.050781 14.445312 -25.359375 12.34375 -25.359375 L 10.375 -25.359375 Z M 10.375 -11.78125 L 10.375 0 L 3.859375 0 L 3.859375 -30.703125 L 12.8125 -30.703125 C 16.976562 -30.703125 20.0625 -29.941406 22.0625 -28.421875 C 24.0625 -26.898438 25.0625 -24.59375 25.0625 -21.5 C 25.0625 -19.695312 24.566406 -18.09375 23.578125 -16.6875 C 22.585938 -15.28125 21.179688 -14.175781 19.359375 -13.375 L 28.390625 0 L 21.171875 0 L 13.84375 -11.78125 Z M 10.375 -11.78125 "/></g></g></g><g fill="#000000" fill-opacity="1"><g transform="translate(157.748607, 56.050172)"><g><path d="M 21.546875 0 L 3.859375 0 L 3.859375 -30.703125 L 21.546875 -30.703125 L 21.546875 -25.359375 L 10.375 -25.359375 L 10.375 -18.625 L 20.765625 -18.625 L 20.765625 -13.296875 L 10.375 -13.296875 L 10.375 -5.375 L 21.546875 -5.375 Z M 21.546875 0 "/></g></g></g><g fill="#000000" fill-opacity="1"><g transform="translate(183.549012, 56.050172)"><g><path d="M 15.34375 0 L 1.390625 0 L 1.390625 -3.703125 L 5.125 -5.421875 L 5.125 -25.28125 L 1.390625 -27 L 1.390625 -30.703125 L 15.34375 -30.703125 L 15.34375 -27 L 11.609375 -25.28125 L 11.609375 -5.421875 L 15.34375 -3.703125 Z M 15.34375 0 "/></g></g></g></svg>